<svg width="96" height="18" viewBox="0 0 96 18" fill="none" xmlns="http://www.w3.org/2000/svg">
<g clip-path="url(#clip0_2133_37)">
<path d="M4.6628 10.0129H3.01279V17H0.303508V1.35542H3.01279V7.46658H4.76466L9.60266 1.35542H12.8823L6.97486 8.65826L13.086 17H9.83692L4.6628 10.0129ZM11.9579 13.3027C11.2925 12.0805 10.9597 10.7055 10.9597 9.17771C10.9597 7.64992 11.2925 6.27491 11.9579 5.05267C12.6233 3.83044 13.5536 2.87642 14.7487 2.19061C15.9505 1.49801 17.3086 1.15171 18.8228 1.15171C20.337 1.15171 21.6916 1.49801 22.8867 2.19061C24.0886 2.87642 25.0222 3.83044 25.6877 5.05267C26.3531 6.27491 26.6858 7.64992 26.6858 9.17771C26.6858 10.7055 26.3531 12.0805 25.6877 13.3027C25.0222 14.525 24.0886 15.4824 22.8867 16.175C21.6916 16.8608 20.337 17.2037 18.8228 17.2037C17.3086 17.2037 15.9505 16.8608 14.7487 16.175C13.5536 15.4824 12.6233 14.525 11.9579 13.3027ZM22.4895 13.1805C23.4062 12.162 23.8645 10.8277 23.8645 9.17771C23.8645 7.5277 23.4062 6.19342 22.4895 5.1749C21.5524 4.15637 20.3302 3.64711 18.8228 3.64711C17.3018 3.64711 16.0829 4.15637 15.1663 5.1749C14.236 6.18663 13.7709 7.52091 13.7709 9.17771C13.7709 10.8345 14.236 12.1688 15.1663 13.1805C16.0829 14.199 17.3018 14.7083 18.8228 14.7083C20.3302 14.7083 21.5524 14.199 22.4895 13.1805ZM53.8414 17H44.0228V1.35542H46.7321V14.4944H53.8414V17ZM53.4975 13.3027C52.8321 12.0805 52.4994 10.7055 52.4994 9.17771C52.4994 7.64992 52.8321 6.27491 53.4975 5.05267C54.163 3.83044 55.0932 2.87642 56.2883 2.19061C57.4902 1.49801 58.8482 1.15171 60.3624 1.15171C61.8766 1.15171 63.2312 1.49801 64.4263 2.19061C65.6282 2.87642 66.5618 3.83044 67.2273 5.05267C67.8927 6.27491 68.2254 7.64992 68.2254 9.17771C68.2254 10.7055 67.8927 12.0805 67.2273 13.3027C66.5618 14.525 65.6282 15.4824 64.4263 16.175C63.2312 16.8608 61.8766 17.2037 60.3624 17.2037C58.8482 17.2037 57.4902 16.8608 56.2883 16.175C55.0932 15.4824 54.163 14.525 53.4975 13.3027ZM64.0291 13.1805C64.9458 12.162 65.4041 10.8277 65.4041 9.17771C65.4041 7.5277 64.9458 6.19342 64.0291 5.1749C63.0921 4.15637 61.8698 3.64711 60.3624 3.64711C58.8414 3.64711 57.6226 4.15637 56.7059 5.1749C55.7756 6.18663 55.3105 7.52091 55.3105 9.17771C55.3105 10.8345 55.7756 12.1688 56.7059 13.1805C57.6226 14.199 58.8414 14.7083 60.3624 14.7083C61.8698 14.7083 63.0921 14.199 64.0291 13.1805ZM71.6298 17H68.9205V1.35542H74.889C76.3965 1.35542 77.6221 1.7832 78.5659 2.63876C79.5165 3.49433 79.9919 4.61131 79.9919 5.98972C79.9919 7.02183 79.7169 7.89776 79.1669 8.61752C78.6169 9.33049 77.8699 9.82957 76.9261 10.1148L81.3669 17H78.2604L74.1557 10.6138H71.6298V17ZM74.8585 3.79989H71.6298V8.17955H74.8585C75.5918 8.17955 76.1792 7.97924 76.6205 7.57862C77.0619 7.178 77.2826 6.64837 77.2826 5.98972C77.2826 5.33107 77.0619 4.80144 76.6205 4.40082C76.1792 4.0002 75.5918 3.79989 74.8585 3.79989Z" fill="white"/>
<path d="M4.6628 10.0129L4.96417 9.78973L4.85173 9.6379H4.6628V10.0129ZM3.01279 10.0129V9.6379H2.63779V10.0129H3.01279ZM3.01279 17V17.375H3.38779V17H3.01279ZM0.303508 17H-0.0714924V17.375H0.303508V17ZM0.303508 1.35542V0.98042H-0.0714924V1.35542H0.303508ZM3.01279 1.35542H3.38779V0.98042H3.01279V1.35542ZM3.01279 7.46658H2.63779V7.84158H3.01279V7.46658ZM4.76466 7.46658V7.84158H4.94607L5.05867 7.69935L4.76466 7.46658ZM9.60266 1.35542V0.98042H9.42125L9.30865 1.12266L9.60266 1.35542ZM12.8823 1.35542L13.1739 1.59126L13.668 0.98042H12.8823V1.35542ZM6.97486 8.65826L6.68331 8.42242L6.5017 8.64693L6.67235 8.87988L6.97486 8.65826ZM13.086 17V17.375H13.8256L13.3885 16.7784L13.086 17ZM9.83692 17L9.53556 17.2232L9.64799 17.375H9.83692V17ZM4.6628 10.0129V9.6379H3.01279V10.0129V10.3879H4.6628V10.0129ZM3.01279 10.0129H2.63779V17H3.01279H3.38779V10.0129H3.01279ZM3.01279 17V16.625H0.303508V17V17.375H3.01279V17ZM0.303508 17H0.678508V1.35542H0.303508H-0.0714924V17H0.303508ZM0.303508 1.35542V1.73042H3.01279V1.35542V0.98042H0.303508V1.35542ZM3.01279 1.35542H2.63779V7.46658H3.01279H3.38779V1.35542H3.01279ZM3.01279 7.46658V7.84158H4.76466V7.46658V7.09158H3.01279V7.46658ZM4.76466 7.46658L5.05867 7.69935L9.89668 1.58818L9.60266 1.35542L9.30865 1.12266L4.47064 7.23382L4.76466 7.46658ZM9.60266 1.35542V1.73042H12.8823V1.35542V0.98042H9.60266V1.35542ZM12.8823 1.35542L12.5908 1.11958L6.68331 8.42242L6.97486 8.65826L7.26641 8.89411L13.1739 1.59126L12.8823 1.35542ZM6.97486 8.65826L6.67235 8.87988L12.7835 17.2216L13.086 17L13.3885 16.7784L7.27737 8.43664L6.97486 8.65826ZM13.086 17V16.625H9.83692V17V17.375H13.086V17ZM9.83692 17L10.1383 16.7768L4.96417 9.78973L4.6628 10.0129L4.36144 10.2361L9.53556 17.2232L9.83692 17ZM14.7487 2.19061L14.9353 2.51586L14.9359 2.51552L14.7487 2.19061ZM22.8867 2.19061L22.6987 2.51507L22.7008 2.51632L22.8867 2.19061ZM22.8867 16.175L23.0734 16.5002L23.0739 16.4999L22.8867 16.175ZM14.7487 16.175L14.5606 16.4995L14.5628 16.5007L14.7487 16.175ZM22.4895 13.1805L22.7655 13.4344L22.7682 13.4314L22.4895 13.1805ZM22.4895 5.1749L22.7682 4.92402L22.7655 4.921L22.4895 5.1749ZM15.1663 5.1749L15.4423 5.42873L15.445 5.42576L15.1663 5.1749ZM15.1663 13.1805L15.445 12.9296L15.4423 12.9267L15.1663 13.1805ZM11.9579 13.3027L12.2873 13.1234C11.6546 11.9615 11.3347 10.6491 11.3347 9.17771H10.9597H10.5847C10.5847 10.7619 10.9303 12.1996 11.6286 13.4821L11.9579 13.3027ZM10.9597 9.17771H11.3347C11.3347 7.7063 11.6546 6.39395 12.2873 5.23199L11.9579 5.05267L11.6286 4.87336C10.9303 6.15587 10.5847 7.59354 10.5847 9.17771H10.9597ZM11.9579 5.05267L12.2873 5.23199C12.9199 4.07002 13.801 3.16679 14.9353 2.51586L14.7487 2.19061L14.562 1.86536C13.3062 2.58605 12.3268 3.59087 11.6286 4.87336L11.9579 5.05267ZM14.7487 2.19061L14.9359 2.51552C16.0757 1.8587 17.3681 1.52671 18.8228 1.52671V1.15171V0.776715C17.249 0.776715 15.8254 1.13733 14.5614 1.8657L14.7487 2.19061ZM18.8228 1.15171V1.52671C20.2775 1.52671 21.5661 1.85871 22.6987 2.51506L22.8867 2.19061L23.0747 1.86616C21.8171 1.13732 20.3965 0.776715 18.8228 0.776715V1.15171ZM22.8867 2.19061L22.7008 2.51632C23.8418 3.1674 24.726 4.07056 25.3583 5.23199L25.6877 5.05267L26.017 4.87336C25.3185 3.59032 24.3353 2.58545 23.0726 1.86491L22.8867 2.19061ZM25.6877 5.05267L25.3583 5.23199C25.9909 6.39395 26.3108 7.7063 26.3108 9.17771H26.6858H27.0608C27.0608 7.59354 26.7153 6.15587 26.017 4.87336L25.6877 5.05267ZM26.6858 9.17771H26.3108C26.3108 10.6491 25.9909 11.9615 25.3583 13.1234L25.6877 13.3027L26.017 13.4821C26.7153 12.1996 27.0608 10.7619 27.0608 9.17771H26.6858ZM25.6877 13.3027L25.3583 13.1234C24.7258 14.2852 23.8412 15.1921 22.6995 15.8501L22.8867 16.175L23.0739 16.4999C24.3359 15.7727 25.3186 14.7648 26.017 13.4821L25.6877 13.3027ZM22.8867 16.175L22.7001 15.8497C21.5673 16.4998 20.2782 16.8287 18.8228 16.8287V17.2037V17.5787C20.3958 17.5787 21.816 17.2218 23.0734 16.5002L22.8867 16.175ZM18.8228 17.2037V16.8287C17.3674 16.8287 16.0745 16.4998 14.9345 15.8493L14.7487 16.175L14.5628 16.5007C15.8265 17.2218 17.2497 17.5787 18.8228 17.5787V17.2037ZM14.7487 16.175L14.9367 15.8505C13.8016 15.1927 12.9201 14.2857 12.2873 13.1234L11.9579 13.3027L11.6286 13.4821C12.3266 14.7642 13.3056 15.7721 14.5606 16.4994L14.7487 16.175ZM22.4895 13.1805L22.7682 13.4314C23.759 12.3305 24.2395 10.9005 24.2395 9.17771H23.8645H23.4895C23.4895 10.755 23.0533 11.9935 22.2107 12.9297L22.4895 13.1805ZM23.8645 9.17771H24.2395C24.2395 7.45496 23.759 6.02491 22.7682 4.92404L22.4895 5.1749L22.2107 5.42576C23.0533 6.36194 23.4895 7.60043 23.4895 9.17771H23.8645ZM22.4895 5.1749L22.7655 4.921C21.7506 3.81793 20.4246 3.27211 18.8228 3.27211V3.64711V4.02211C20.2358 4.02211 21.3542 4.49482 22.2135 5.42879L22.4895 5.1749ZM18.8228 3.64711V3.27211C17.2085 3.27211 15.8836 3.81729 14.8875 4.92404L15.1663 5.1749L15.445 5.42576C16.2823 4.49545 17.3951 4.02211 18.8228 4.02211V3.64711ZM15.1663 5.1749L14.8902 4.92108C13.8838 6.0157 13.3959 7.44727 13.3959 9.17771H13.7709H14.1459C14.1459 7.59454 14.5883 6.35757 15.4423 5.42871L15.1663 5.1749ZM13.7709 9.17771H13.3959C13.3959 10.9081 13.8838 12.3397 14.8902 13.4343L15.1663 13.1805L15.4423 12.9267C14.5883 11.9979 14.1459 10.7609 14.1459 9.17771H13.7709ZM15.1663 13.1805L14.8875 13.4314C15.8836 14.5381 17.2085 15.0833 18.8228 15.0833V14.7083V14.3333C17.3951 14.3333 16.2823 13.86 15.445 12.9297L15.1663 13.1805ZM18.8228 14.7083V15.0833C20.4246 15.0833 21.7506 14.5375 22.7655 13.4344L22.4895 13.1805L22.2135 12.9266C21.3542 13.8606 20.2358 14.3333 18.8228 14.3333V14.7083ZM53.8414 17V17.375H54.2164V17H53.8414ZM44.0228 17H43.6478V17.375H44.0228V17ZM44.0228 1.35542V0.98042H43.6478V1.35542H44.0228ZM46.7321 1.35542H47.1071V0.98042H46.7321V1.35542ZM46.7321 14.4944H46.3571V14.8694H46.7321V14.4944ZM53.8414 14.4944H54.2164V14.1194H53.8414V14.4944ZM53.8414 17V16.625H44.0228V17V17.375H53.8414V17ZM44.0228 17H44.3978V1.35542H44.0228H43.6478V17H44.0228ZM44.0228 1.35542V1.73042H46.7321V1.35542V0.98042H44.0228V1.35542ZM46.7321 1.35542H46.3571V14.4944H46.7321H47.1071V1.35542H46.7321ZM46.7321 14.4944V14.8694H53.8414V14.4944V14.1194H46.7321V14.4944ZM53.8414 14.4944H53.4664V17H53.8414H54.2164V14.4944H53.8414ZM56.2883 2.19061L56.4749 2.51586L56.4755 2.51552L56.2883 2.19061ZM64.4263 2.19061L64.2383 2.51507L64.2405 2.51632L64.4263 2.19061ZM64.4263 16.175L64.613 16.5002L64.6136 16.4999L64.4263 16.175ZM56.2883 16.175L56.1002 16.4995L56.1024 16.5007L56.2883 16.175ZM64.0291 13.1805L64.3051 13.4344L64.3078 13.4314L64.0291 13.1805ZM64.0291 5.1749L64.3078 4.92402L64.3051 4.921L64.0291 5.1749ZM56.7059 5.1749L56.9819 5.42873L56.9846 5.42576L56.7059 5.1749ZM56.7059 13.1805L56.9846 12.9296L56.9819 12.9267L56.7059 13.1805ZM53.4975 13.3027L53.8269 13.1234C53.1943 11.9615 52.8744 10.6491 52.8744 9.17771H52.4994H52.1244C52.1244 10.7619 52.4699 12.1996 53.1682 13.4821L53.4975 13.3027ZM52.4994 9.17771H52.8744C52.8744 7.7063 53.1943 6.39395 53.8269 5.23199L53.4975 5.05267L53.1682 4.87336C52.4699 6.15587 52.1244 7.59354 52.1244 9.17771H52.4994ZM53.4975 5.05267L53.8269 5.23199C54.4595 4.07002 55.3406 3.16679 56.4749 2.51586L56.2883 2.19061L56.1016 1.86536C54.8458 2.58605 53.8664 3.59087 53.1682 4.87336L53.4975 5.05267ZM56.2883 2.19061L56.4755 2.51552C57.6153 1.8587 58.9077 1.52671 60.3624 1.52671V1.15171V0.776715C58.7887 0.776715 57.365 1.13733 56.1011 1.8657L56.2883 2.19061ZM60.3624 1.15171V1.52671C61.8171 1.52671 63.1058 1.85871 64.2383 2.51506L64.4263 2.19061L64.6144 1.86616C63.3567 1.13732 61.9361 0.776715 60.3624 0.776715V1.15171ZM64.4263 2.19061L64.2405 2.51632C65.3815 3.1674 66.2656 4.07056 66.8979 5.23199L67.2273 5.05267L67.5566 4.87336C66.8581 3.59032 65.8749 2.58545 64.6122 1.86491L64.4263 2.19061ZM67.2273 5.05267L66.8979 5.23199C67.5305 6.39395 67.8504 7.7063 67.8504 9.17771H68.2254H68.6004C68.6004 7.59354 68.2549 6.15587 67.5566 4.87336L67.2273 5.05267ZM68.2254 9.17771H67.8504C67.8504 10.6491 67.5305 11.9615 66.8979 13.1234L67.2273 13.3027L67.5566 13.4821C68.2549 12.1996 68.6004 10.7619 68.6004 9.17771H68.2254ZM67.2273 13.3027L66.8979 13.1234C66.2654 14.2852 65.3809 15.1921 64.2391 15.8501L64.4263 16.175L64.6136 16.4999C65.8755 15.7727 66.8582 14.7648 67.5566 13.4821L67.2273 13.3027ZM64.4263 16.175L64.2397 15.8497C63.1069 16.4998 61.8178 16.8287 60.3624 16.8287V17.2037V17.5787C61.9354 17.5787 63.3556 17.2218 64.613 16.5002L64.4263 16.175ZM60.3624 17.2037V16.8287C58.9071 16.8287 57.6141 16.4998 56.4741 15.8493L56.2883 16.175L56.1024 16.5007C57.3662 17.2218 58.7893 17.5787 60.3624 17.5787V17.2037ZM56.2883 16.175L56.4763 15.8505C55.3412 15.1927 54.4597 14.2857 53.8269 13.1234L53.4975 13.3027L53.1682 13.4821C53.8662 14.7642 54.8452 15.7721 56.1003 16.4994L56.2883 16.175ZM64.0291 13.1805L64.3078 13.4314C65.2986 12.3305 65.7791 10.9005 65.7791 9.17771H65.4041H65.0291C65.0291 10.755 64.5929 11.9935 63.7504 12.9297L64.0291 13.1805ZM65.4041 9.17771H65.7791C65.7791 7.45496 65.2986 6.02491 64.3078 4.92404L64.0291 5.1749L63.7504 5.42576C64.5929 6.36194 65.0291 7.60043 65.0291 9.17771H65.4041ZM64.0291 5.1749L64.3051 4.921C63.2902 3.81793 61.9643 3.27211 60.3624 3.27211V3.64711V4.02211C61.7754 4.02211 62.8939 4.49482 63.7531 5.42879L64.0291 5.1749ZM60.3624 3.64711V3.27211C58.7481 3.27211 57.4232 3.81729 56.4271 4.92404L56.7059 5.1749L56.9846 5.42576C57.8219 4.49545 58.9347 4.02211 60.3624 4.02211V3.64711ZM56.7059 5.1749L56.4298 4.92108C55.4234 6.0157 54.9355 7.44727 54.9355 9.17771H55.3105H55.6855C55.6855 7.59454 56.1279 6.35757 56.9819 5.42871L56.7059 5.1749ZM55.3105 9.17771H54.9355C54.9355 10.9081 55.4234 12.3397 56.4298 13.4343L56.7059 13.1805L56.9819 12.9267C56.1279 11.9979 55.6855 10.7609 55.6855 9.17771H55.3105ZM56.7059 13.1805L56.4271 13.4314C57.4232 14.5381 58.7481 15.0833 60.3624 15.0833V14.7083V14.3333C58.9347 14.3333 57.8219 13.86 56.9846 12.9297L56.7059 13.1805ZM60.3624 14.7083V15.0833C61.9643 15.0833 63.2902 14.5375 64.3051 13.4344L64.0291 13.1805L63.7531 12.9266C62.8939 13.8606 61.7754 14.3333 60.3624 14.3333V14.7083ZM71.6298 17V17.375H72.0048V17H71.6298ZM68.9205 17H68.5455V17.375H68.9205V17ZM68.9205 1.35542V0.98042H68.5455V1.35542H68.9205ZM78.5659 2.63876L78.3141 2.91661L78.3151 2.9175L78.5659 2.63876ZM79.1669 8.61752L79.4638 8.84657L79.4648 8.84521L79.1669 8.61752ZM76.9261 10.1148L76.8176 9.75578L76.3412 9.89974L76.611 10.318L76.9261 10.1148ZM81.3669 17V17.375H82.055L81.682 16.7967L81.3669 17ZM78.2604 17L77.9449 17.2028L78.0556 17.375H78.2604V17ZM74.1557 10.6138L74.4712 10.4111L74.3605 10.2388H74.1557V10.6138ZM71.6298 10.6138V10.2388H71.2548V10.6138H71.6298ZM71.6298 3.79989V3.42489H71.2548V3.79989H71.6298ZM71.6298 8.17955H71.2548V8.55455H71.6298V8.17955ZM71.6298 17V16.625H68.9205V17V17.375H71.6298V17ZM68.9205 17H69.2955V1.35542H68.9205H68.5455V17H68.9205ZM68.9205 1.35542V1.73042H74.889V1.35542V0.98042H68.9205V1.35542ZM74.889 1.35542V1.73042C76.3214 1.73042 77.4515 2.13473 78.3141 2.9166L78.5659 2.63876L78.8178 2.36093C77.7926 1.43167 76.4715 0.98042 74.889 0.98042V1.35542ZM78.5659 2.63876L78.3151 2.9175C79.18 3.69596 79.6169 4.70833 79.6169 5.98972H79.9919H80.3669C80.3669 4.5143 79.8531 3.2927 78.8168 2.36003L78.5659 2.63876ZM79.9919 5.98972H79.6169C79.6169 6.95155 79.3621 7.7444 78.8689 8.38983L79.1669 8.61752L79.4648 8.84521C80.0716 8.05112 80.3669 7.09211 80.3669 5.98972H79.9919ZM79.1669 8.61752L78.8699 8.38847C78.3722 9.03365 77.6941 9.49095 76.8176 9.75578L76.9261 10.1148L77.0346 10.4737C78.0458 10.1682 78.8615 9.62733 79.4638 8.84657L79.1669 8.61752ZM76.9261 10.1148L76.611 10.318L81.0517 17.2033L81.3669 17L81.682 16.7967L77.2412 9.9115L76.9261 10.1148ZM81.3669 17V16.625H78.2604V17V17.375H81.3669V17ZM78.2604 17L78.5758 16.7972L74.4712 10.4111L74.1557 10.6138L73.8402 10.8166L77.9449 17.2028L78.2604 17ZM74.1557 10.6138V10.2388H71.6298V10.6138V10.9888H74.1557V10.6138ZM71.6298 10.6138H71.2548V17H71.6298H72.0048V10.6138H71.6298ZM74.8585 3.79989V3.42489H71.6298V3.79989V4.17489H74.8585V3.79989ZM71.6298 3.79989H71.2548V8.17955H71.6298H72.0048V3.79989H71.6298ZM71.6298 8.17955V8.55455H74.8585V8.17955V7.80455H71.6298V8.17955ZM74.8585 8.17955V8.55455C75.6626 8.55455 76.3472 8.33316 76.8726 7.85629L76.6205 7.57862L76.3685 7.30095C76.0111 7.62533 75.5211 7.80455 74.8585 7.80455V8.17955ZM76.6205 7.57862L76.8726 7.85629C77.401 7.37668 77.6576 6.74175 77.6576 5.98972H77.2826H76.9076C76.9076 6.55499 76.7228 6.97932 76.3685 7.30095L76.6205 7.57862ZM77.2826 5.98972H77.6576C77.6576 5.23769 77.401 4.60276 76.8726 4.12315L76.6205 4.40082L76.3685 4.67849C76.7228 5.00012 76.9076 5.42445 76.9076 5.98972H77.2826ZM76.6205 4.40082L76.8726 4.12315C76.3472 3.64628 75.6626 3.42489 74.8585 3.42489V3.79989V4.17489C75.5211 4.17489 76.0111 4.35411 76.3685 4.67849L76.6205 4.40082Z" fill="white"/>
<path d="M40.6006 17.2231L36.8788 5.6477C36.5285 4.53715 35.9155 4.0673 35.1492 4.0673C34.0984 4.0673 33.157 5.007 32.4126 6.28841C36.5723 7.91152 37.9077 10.4957 37.9077 12.7168C37.9077 15.6854 35.5433 17.4793 32.7191 17.4793C29.3914 17.4793 27.421 15.0874 27.421 11.9479C27.421 10.9442 27.64 9.66277 28.0559 8.36001C27.64 8.25323 23.6599 7.40201 23.2002 7.31658L24.1197 4.32664C24.7108 4.41206 28.8003 5.28464 29.3257 5.41278C30.6831 2.95675 32.7629 0.949219 35.4557 0.949219C37.7107 0.949219 39.3527 2.33741 40.2722 5.30599L44.0596 17.2231H40.6006ZM30.7707 11.8839C30.7707 13.6565 31.5807 14.4894 32.7848 14.4894C33.7919 14.4894 34.58 13.9128 34.58 12.7809C34.58 11.5422 33.5729 10.2608 31.1866 9.27835C30.9239 10.2394 30.7707 11.1577 30.7707 11.8839Z" fill="white"/>
<path d="M94.7534 12.1568C94.7534 15.2617 91.8672 17.7106 88.1064 17.7106C84.9578 17.7106 82.2684 16.2019 81.5031 13.6218L84.936 12.5504C85.2421 13.9279 86.4009 14.8243 88.1064 14.8243C90.0962 14.8243 91.4518 13.7092 91.4518 12.1568C91.4518 11.96 91.4299 11.7851 91.4081 11.6102C90.4023 12.0256 89.2871 12.2661 88.1064 12.2661C84.0395 12.2661 81.0439 9.77348 81.0439 5.46603C81.0439 3.93546 81.3938 2.62355 82.2247 1.04925H85.8324C84.9141 2.42676 84.4112 3.93546 84.4549 5.44416C84.4987 7.60882 85.8762 9.24871 88.2376 9.24871C88.5219 9.24871 88.7842 9.22685 89.0466 9.18312C87.8878 8.08986 87.0132 6.75608 87.0132 5.02872C87.0132 2.51422 89.0248 0.786865 91.5393 0.786865C94.1631 0.786865 95.9998 2.55795 95.9998 5.26924C95.9998 6.90913 95.3001 8.50529 94.1194 9.75161C94.5129 10.4513 94.7534 11.1947 94.7534 12.1568ZM90.3148 5.09432C90.3148 6.03452 90.8614 6.931 91.7142 7.76188C92.392 7.06219 92.7856 6.14385 92.7856 5.20364C92.7856 4.21971 92.2827 3.65121 91.5611 3.65121C90.8396 3.65121 90.3148 4.24157 90.3148 5.09432Z" fill="white"/>
</g>
<defs>
<clipPath id="clip0_2133_37">
<rect width="96" height="18" fill="white"/>
</clipPath>
</defs>
</svg>
