<svg width="83" height="19" viewBox="0 0 83 19" fill="none" xmlns="http://www.w3.org/2000/svg">
<path d="M22.9841 5.09237H31.1596V6.59043H27.9455V15.0135H26.1769V6.59043H22.9766V5.0918L22.9841 5.09237ZM30.8106 7.82948H32.322V9.21621H32.3502C32.4004 9.02008 32.4927 8.83088 32.6283 8.6486C32.9181 8.25791 33.3104 7.95505 33.7618 7.77353C33.991 7.68269 34.2351 7.63516 34.4817 7.63336C34.6662 7.63336 34.8024 7.64028 34.8739 7.64778C34.9449 7.6547 35.0158 7.66854 35.0943 7.67547V9.20179C34.9785 9.18154 34.8621 9.16518 34.7453 9.15276C34.6292 9.13903 34.5125 9.13209 34.3957 9.13199C34.1246 9.13199 33.8685 9.18794 33.6262 9.2935C33.3839 9.39791 33.1768 9.55885 32.9992 9.76248C32.8096 9.99015 32.6644 10.2514 32.5712 10.5326C32.4644 10.8406 32.4143 11.1902 32.4143 11.5899V15.0065H30.8037V7.82948H30.8106ZM42.5003 15.014H40.918V14.0126H40.8892C40.6896 14.3772 40.3977 14.6645 40.0055 14.8814C39.6132 15.0983 39.2141 15.2102 38.808 15.2102C37.8458 15.2102 37.1467 14.9794 36.7198 14.5099C36.2918 14.0409 36.0778 13.3337 36.0778 12.3883V7.83006H37.6889V12.2342C37.6889 12.8647 37.81 13.3129 38.0598 13.5719C38.3021 13.8309 38.6511 13.9642 39.0929 13.9642C39.435 13.9642 39.713 13.9152 39.9409 13.8096C40.1693 13.7046 40.3545 13.5719 40.49 13.3966C40.6325 13.2287 40.7323 13.0187 40.7969 12.7805C40.8604 12.5423 40.8892 12.2833 40.8892 12.0035V7.83698H42.5003V15.014ZM45.2443 12.7107C45.2945 13.1722 45.4722 13.4952 45.7791 13.6838C46.0923 13.8661 46.4632 13.9642 46.8981 13.9642C47.0481 13.9642 47.2189 13.9498 47.4115 13.929C47.6036 13.9077 47.7888 13.8586 47.9532 13.7963C48.1239 13.7329 48.2589 13.6348 48.3731 13.5091C48.4804 13.3822 48.53 13.2218 48.5231 13.0187C48.5222 12.9245 48.5014 12.8315 48.4622 12.7458C48.4229 12.6602 48.366 12.5837 48.2953 12.5215C48.1522 12.3888 47.9745 12.2908 47.753 12.2065C47.5063 12.1211 47.2537 12.0532 46.9974 12.0035C46.7124 11.9475 46.4274 11.8841 46.1356 11.8212C45.8415 11.7576 45.5511 11.6781 45.2657 11.583C44.998 11.4972 44.7455 11.3697 44.5175 11.2052C44.2954 11.0501 44.1143 10.8435 43.9897 10.6029C43.8547 10.3578 43.7901 10.0567 43.7901 9.69268C43.7901 9.30043 43.8899 8.97855 44.0826 8.71205C44.2769 8.44777 44.5278 8.23021 44.8169 8.07522C45.1276 7.91097 45.4616 7.79522 45.8073 7.732C46.1708 7.66912 46.5203 7.63393 46.848 7.63393C47.2258 7.63393 47.5892 7.67604 47.9318 7.75334C48.2636 7.82436 48.5798 7.9547 48.8652 8.13809C49.1432 8.31345 49.3711 8.54419 49.5568 8.82453C49.742 9.1043 49.8562 9.44752 49.9058 9.84669H48.2237C48.1453 9.46886 47.974 9.20986 47.6965 9.08353C47.4185 8.95086 47.0977 8.88741 46.7412 8.88741C46.627 8.88741 46.4915 8.89433 46.3351 8.91567C46.1845 8.93571 46.0363 8.97088 45.8927 9.02066C45.7615 9.06898 45.6424 9.14536 45.5437 9.24447C45.4958 9.29619 45.4586 9.35684 45.4341 9.42296C45.4097 9.48908 45.3985 9.55936 45.4012 9.6298C45.4012 9.82593 45.4722 9.97994 45.6078 10.0988C45.7433 10.2176 45.9216 10.3157 46.1425 10.3999C46.3634 10.4772 46.6132 10.547 46.8981 10.6029C47.1831 10.6589 47.475 10.7218 47.7749 10.7852C48.0668 10.8481 48.3518 10.9323 48.6373 11.0229C48.9223 11.114 49.1715 11.2403 49.393 11.4013C49.6139 11.5622 49.7922 11.7583 49.9271 11.9966C50.0627 12.2342 50.1342 12.5353 50.1342 12.8855C50.1342 13.3124 50.0344 13.67 49.8343 13.9711C49.6353 14.2653 49.3786 14.5099 49.0648 14.6922C48.7363 14.8814 48.3803 15.0184 48.0097 15.0983C47.6327 15.1812 47.2478 15.2234 46.8618 15.224C46.4295 15.2289 45.9984 15.1771 45.5795 15.07C45.1872 14.965 44.8452 14.811 44.5602 14.6085C44.2786 14.4039 44.047 14.138 43.883 13.8309C43.7192 13.5229 43.6332 13.1514 43.6194 12.7246H45.2443V12.7107ZM50.5617 7.83064H51.7805V5.67325H53.3916V7.83064H54.8453V9.01316H53.3922V12.8509C53.3922 13.0182 53.3991 13.1589 53.4136 13.2847C53.4274 13.4041 53.4632 13.5091 53.5134 13.5927C53.5679 13.6806 53.6507 13.7473 53.7481 13.7819C53.8554 13.824 53.9904 13.8454 54.1761 13.8454C54.2898 13.8454 54.404 13.8454 54.5182 13.8379C54.6324 13.8309 54.7461 13.8171 54.8603 13.7888V15.014C54.682 15.0354 54.5038 15.0492 54.34 15.07C54.1673 15.0901 53.9935 15.0995 53.8197 15.0983C53.3922 15.0983 53.0502 15.0561 52.7929 14.9794C52.5368 14.9021 52.3297 14.7833 52.1872 14.6293C52.0372 14.4753 51.9449 14.2861 51.8878 14.0547C51.8323 13.7946 51.8014 13.5298 51.7955 13.2639V9.02643H50.5767V7.82891H50.5622L50.5617 7.83064ZM55.9857 7.83064H57.5114V8.80319H57.5403C57.7676 8.38325 58.0814 8.08906 58.4875 7.90736C58.9025 7.7228 59.3524 7.62956 59.8067 7.63393C60.3835 7.63393 60.8825 7.732 61.3105 7.93504C61.738 8.13117 62.0944 8.40459 62.3794 8.75416C62.6644 9.1043 62.8714 9.5104 63.0139 9.97302C63.1591 10.4543 63.2312 10.9546 63.2279 11.4572C63.2279 11.94 63.1639 12.409 63.0353 12.8578C62.9171 13.2907 62.7215 13.6986 62.4578 14.0617C62.1988 14.4117 61.8621 14.697 61.4743 14.8952C61.0752 15.1052 60.612 15.2102 60.0703 15.2102C59.8335 15.2099 59.5973 15.1887 59.3643 15.1467C59.1318 15.1048 58.9049 15.0369 58.6876 14.9442C58.4718 14.8542 58.27 14.7338 58.0883 14.5866C57.9089 14.4435 57.7527 14.2737 57.6251 14.083H57.5962V17.6681H55.9857V7.82948V7.83064ZM61.6168 11.429C61.6171 11.1097 61.574 10.7918 61.4888 10.4841C61.4098 10.1926 61.2793 9.9175 61.1034 9.67191C60.9366 9.43826 60.7201 9.24443 60.4695 9.1043C60.2003 8.95886 59.8986 8.88423 59.5927 8.88741C58.9155 8.88741 58.4021 9.11814 58.06 9.58077C57.718 10.0428 57.5466 10.6595 57.5466 11.429C57.5466 11.793 57.5899 12.1293 57.6822 12.4373C57.7745 12.7453 57.9031 13.0118 58.0883 13.2356C58.2671 13.46 58.4805 13.6348 58.7303 13.7606C58.9795 13.8938 59.272 13.9567 59.5996 13.9567C59.9705 13.9567 60.2768 13.88 60.5335 13.7329C60.7821 13.5899 60.9962 13.3939 61.1605 13.1589C61.3244 12.9207 61.4461 12.6542 61.517 12.3536C61.5826 12.0498 61.6161 11.7398 61.6168 11.429ZM64.4606 5.09237H66.0718V6.59101H64.4606V5.09237ZM64.4606 7.83006H66.0718V15.014H64.4606V7.83006ZM67.5116 5.09237H69.1227V15.014H67.5116V5.09237ZM74.0622 15.2102C73.4772 15.2102 72.9569 15.1121 72.5012 14.9235C72.0643 14.7443 71.6689 14.4773 71.3395 14.139C71.0192 13.7938 70.7738 13.3861 70.619 12.9414C70.4494 12.4506 70.3652 11.9344 70.3698 11.4151C70.3698 10.8689 70.4552 10.3653 70.619 9.90265C70.7739 9.45821 71.0193 9.05067 71.3395 8.7057C71.6527 8.3694 72.0449 8.1104 72.5012 7.9212C72.9569 7.732 73.4772 7.63393 74.0622 7.63393C74.6465 7.63393 75.1668 7.732 75.6231 7.9212C76.0794 8.1104 76.4641 8.3769 76.7848 8.7057C77.1051 9.05055 77.3502 9.45814 77.5047 9.90265C77.6686 10.3647 77.7539 10.8689 77.7539 11.4151C77.7539 11.9689 77.6686 12.4794 77.5047 12.9414C77.3503 13.3862 77.1052 13.794 76.7848 14.139C76.471 14.4753 76.0794 14.7343 75.6231 14.9235C75.1668 15.1121 74.6465 15.2102 74.0622 15.2102ZM74.0622 13.9567C74.4186 13.9567 74.7319 13.88 74.9955 13.7329C75.2524 13.5898 75.4742 13.3912 75.6444 13.1514C75.8152 12.9138 75.9363 12.6403 76.0223 12.3392C76.1007 12.0381 76.1434 11.7301 76.1434 11.4151C76.1434 11.1071 76.1007 10.806 76.0223 10.4979C75.9488 10.2058 75.8206 9.93016 75.6444 9.68576C75.4738 9.44827 75.252 9.25213 74.9955 9.1118C74.7319 8.9647 74.4186 8.88741 74.0622 8.88741C73.7057 8.88741 73.3919 8.9647 73.1282 9.1118C72.8734 9.25427 72.6522 9.45004 72.4799 9.68576C72.3062 9.93161 72.1782 10.2067 72.102 10.4979C72.0231 10.7973 71.9822 11.1055 71.9803 11.4151C71.9803 11.7301 72.0236 12.0381 72.102 12.3392C72.1805 12.6403 72.3086 12.9138 72.4799 13.1514C72.6506 13.3896 72.8646 13.5858 73.1282 13.7329C73.3919 13.8869 73.7057 13.9567 74.0622 13.9567ZM78.2246 7.83064H79.4435V5.67325H81.0546V7.83064H82.5083V9.01316H81.0546V12.8509C81.0546 13.0182 81.0615 13.1589 81.0754 13.2847C81.0898 13.4041 81.1256 13.5091 81.1757 13.5927C81.2302 13.6807 81.313 13.7474 81.4105 13.7819C81.5178 13.824 81.6528 13.8454 81.8385 13.8454C81.9522 13.8454 82.0664 13.8454 82.1806 13.8379C82.2948 13.8309 82.4085 13.8171 82.5227 13.7888V15.014C82.3444 15.0354 82.1662 15.0492 82.0024 15.07C81.8297 15.0901 81.6559 15.0995 81.4821 15.0983C81.0546 15.0983 80.712 15.0561 80.4553 14.9794C80.1992 14.9021 79.9921 14.7833 79.8496 14.6293C79.7002 14.4753 79.6073 14.2861 79.5502 14.0547C79.4948 13.7946 79.4639 13.5298 79.4579 13.2639V9.02643H78.2391V7.82891H78.2246V7.83064Z" fill="black"/>
<path d="M20.1031 7.09171H12.7189L10.4381 0.1875L8.14919 7.09228L0.765625 7.08478L6.74573 11.3557L4.45798 18.2524L10.4381 13.9884L16.4113 18.2524L14.1304 11.3557L20.1031 7.09171Z" fill="#04DA8D"/>
<path d="M14.6436 12.918L14.1303 11.3564L10.4385 13.9891L14.6436 12.918Z" fill="#126849"/>
</svg>
