<svg width="96" height="23" viewBox="0 0 96 23" fill="none" xmlns="http://www.w3.org/2000/svg">
<rect x="0.744629" y="0.361328" width="94.8492" height="21.8556" rx="4.85679" fill="#FC7B00"/>
<path d="M22.9764 15.3833V6.65603H26.3173C26.948 6.65603 27.4721 6.75546 27.8897 6.95432C28.3102 7.15035 28.6241 7.41881 28.8315 7.75972C29.0417 8.10063 29.1469 8.48699 29.1469 8.91881C29.1469 9.27393 29.0787 9.5779 28.9423 9.83074C28.8059 10.0807 28.6227 10.2839 28.3926 10.4401C28.1625 10.5964 27.9054 10.7086 27.6213 10.7768V10.862C27.9309 10.879 28.2278 10.9742 28.5119 11.1475C28.7988 11.318 29.0332 11.5594 29.215 11.8719C29.3969 12.1844 29.4878 12.5623 29.4878 13.0055C29.4878 13.4572 29.3784 13.8634 29.1596 14.2242C28.9409 14.5822 28.6113 14.8648 28.171 15.0722C27.7307 15.2796 27.1767 15.3833 26.5091 15.3833H22.9764ZM24.5574 14.0623H26.2576C26.8315 14.0623 27.2449 13.9529 27.4977 13.7342C27.7534 13.5126 27.8812 13.2285 27.8812 12.8819C27.8812 12.6234 27.8173 12.3904 27.6895 12.183C27.5616 11.9728 27.3798 11.808 27.144 11.6887C26.9082 11.5665 26.627 11.5055 26.3003 11.5055H24.5574V14.0623ZM24.5574 10.3677H26.1213C26.394 10.3677 26.6397 10.318 26.8585 10.2185C27.0772 10.1163 27.2491 9.97279 27.3741 9.78813C27.502 9.60063 27.5659 9.37904 27.5659 9.12336C27.5659 8.78529 27.4466 8.50688 27.2079 8.28813C26.9721 8.06938 26.6213 7.96001 26.1554 7.96001H24.5574V10.3677ZM30.1431 15.3833V6.65603H35.8193V7.98131H31.7241V10.3506H35.5252V11.6759H31.7241V14.058H35.8533V15.3833H30.1431ZM41.4551 9.05518C41.4153 8.68302 41.2477 8.39324 40.9522 8.18586C40.6596 7.97847 40.2789 7.87478 39.8102 7.87478C39.4806 7.87478 39.198 7.92449 38.9622 8.02393C38.7264 8.12336 38.546 8.2583 38.421 8.42876C38.296 8.59921 38.2321 8.79381 38.2292 9.01256C38.2292 9.19438 38.2704 9.35205 38.3528 9.48557C38.438 9.6191 38.5531 9.73273 38.698 9.82648C38.8429 9.91739 39.0034 9.9941 39.1795 10.0566C39.3556 10.1191 39.5332 10.1717 39.7122 10.2143L40.5304 10.4188C40.8599 10.4955 41.1767 10.5992 41.4806 10.7299C41.7875 10.8606 42.0616 11.0253 42.3031 11.2242C42.5474 11.4231 42.7406 11.6631 42.8826 11.9444C43.0247 12.2256 43.0957 12.5552 43.0957 12.933C43.0957 13.4444 42.965 13.8947 42.7037 14.2839C42.4423 14.6702 42.0645 14.9728 41.5701 15.1915C41.0787 15.4074 40.4835 15.5154 39.7846 15.5154C39.1056 15.5154 38.5162 15.4103 38.0162 15.2001C37.519 14.9898 37.1298 14.683 36.8485 14.2796C36.5701 13.8762 36.4196 13.3847 36.3968 12.8052H37.9522C37.975 13.1092 38.0687 13.362 38.2335 13.5637C38.3983 13.7654 38.6127 13.916 38.877 14.0154C39.144 14.1148 39.4423 14.1646 39.7718 14.1646C40.1156 14.1646 40.4167 14.1134 40.6752 14.0111C40.9366 13.906 41.1412 13.7611 41.2889 13.5765C41.4366 13.389 41.5119 13.1702 41.5147 12.9202C41.5119 12.693 41.4451 12.5055 41.3145 12.3577C41.1838 12.2072 41.0005 12.0822 40.7647 11.9827C40.5318 11.8805 40.2591 11.7896 39.9466 11.71L38.9537 11.4543C38.2349 11.2697 37.6667 10.9898 37.2491 10.6148C36.8343 10.237 36.627 9.73557 36.627 9.11057C36.627 8.59637 36.7662 8.14608 37.0446 7.75972C37.3258 7.37336 37.7079 7.07364 38.1909 6.86057C38.6738 6.64466 39.2207 6.53671 39.8315 6.53671C40.4508 6.53671 40.9934 6.64466 41.4593 6.86057C41.9281 7.07364 42.296 7.37052 42.563 7.7512C42.8301 8.12904 42.9679 8.5637 42.9764 9.05518H41.4551ZM43.4016 7.98131V6.65603H50.3647V7.98131H47.6673V15.3833H46.0991V7.98131H43.4016ZM54.4112 6.65603L56.6825 13.5253H56.772L59.039 6.65603H60.7777L57.701 15.3833H55.7493L52.6768 6.65603H54.4112ZM61.3084 15.3833H59.6209L62.6933 6.65603H64.645L67.7217 15.3833H66.0342L63.7033 8.4458H63.6351L61.3084 15.3833ZM61.3638 11.9614H65.9661V13.2313H61.3638V11.9614ZM68.1512 15.3833V6.65603H69.7322V14.058H73.576V15.3833H68.1512ZM79.7295 6.65603H81.3105V12.3577C81.3105 12.9827 81.1628 13.5324 80.8673 14.0069C80.5747 14.4813 80.1628 14.8521 79.6315 15.1191C79.1003 15.3833 78.4795 15.5154 77.7693 15.5154C77.0562 15.5154 76.4341 15.3833 75.9028 15.1191C75.3716 14.8521 74.9597 14.4813 74.667 14.0069C74.3744 13.5324 74.2281 12.9827 74.2281 12.3577V6.65603H75.8091V12.2256C75.8091 12.5893 75.8886 12.9131 76.0477 13.1972C76.2097 13.4813 76.4369 13.7043 76.7295 13.8663C77.0222 14.0253 77.3687 14.1049 77.7693 14.1049C78.1699 14.1049 78.5165 14.0253 78.8091 13.8663C79.1045 13.7043 79.3318 13.4813 79.4909 13.1972C79.65 12.9131 79.7295 12.5893 79.7295 12.2256V6.65603ZM82.3089 15.3833V6.65603H87.985V7.98131H83.8899V10.3506H87.691V11.6759H83.8899V14.058H88.0191V15.3833H82.3089Z" fill="white"/>
<g filter="url(#filter0_d_2012_38)">
<path d="M9.97543 4.63847C10.1732 3.98525 10.9652 3.73431 11.5031 4.15446L13.8284 5.97087C14.0044 6.10841 14.2225 6.18104 14.4459 6.17654L17.3959 6.11704C18.0783 6.10328 18.5617 6.779 18.3283 7.42035L17.3194 10.1931C17.243 10.4031 17.2413 10.633 17.3146 10.844L18.2828 13.6313C18.5068 14.276 18.0135 14.9445 17.3314 14.9208L14.3826 14.818C14.1593 14.8103 13.9401 14.8797 13.7621 15.0146L11.4104 16.7968C10.8664 17.209 10.0782 16.9465 9.89001 16.2904L9.07648 13.4541C9.01488 13.2394 8.88112 13.0524 8.69776 12.9248L6.27615 11.2389C5.71602 10.849 5.72211 10.0181 6.2879 9.63645L8.73396 7.98628C8.91918 7.86133 9.05566 7.67635 9.1204 7.46251L9.97543 4.63847Z" fill="white"/>
</g>
<defs>
<filter id="filter0_d_2012_38" x="4.88844" y="3.94824" width="13.4993" height="14.5034" filterUnits="userSpaceOnUse" color-interpolation-filters="sRGB">
<feFlood flood-opacity="0" result="BackgroundImageFix"/>
<feColorMatrix in="SourceAlpha" type="matrix" values="0 0 0 0 0 0 0 0 0 0 0 0 0 0 0 0 0 0 127 0" result="hardAlpha"/>
<feOffset dx="-0.971358" dy="1.45704"/>
<feComposite in2="hardAlpha" operator="out"/>
<feColorMatrix type="matrix" values="0 0 0 0 0.784236 0 0 0 0 0.409569 0 0 0 0 0.0523285 0 0 0 1 0"/>
<feBlend mode="normal" in2="BackgroundImageFix" result="effect1_dropShadow_2012_38"/>
<feBlend mode="normal" in="SourceGraphic" in2="effect1_dropShadow_2012_38" result="shape"/>
</filter>
</defs>
</svg>
