<svg width="31" height="31" viewBox="0 0 31 31" fill="none" xmlns="http://www.w3.org/2000/svg">
<rect width="31" height="31" rx="7" fill="#FC7B00"/>
<path d="M6 8.5C6 7.11929 7.11929 6 8.5 6V6C9.88071 6 11 7.11929 11 8.5V8.5C11 9.88071 9.88071 11 8.5 11V11C7.11929 11 6 9.88071 6 8.5V8.5Z" fill="white"/>
<path d="M6 15.5C6 14.1193 7.11929 13 8.5 13V13C9.88071 13 11 14.1193 11 15.5V15.5C11 16.8807 9.88071 18 8.5 18V18C7.11929 18 6 16.8807 6 15.5V15.5Z" fill="white"/>
<path d="M6 22.5C6 21.1193 7.11929 20 8.5 20V20C9.88071 20 11 21.1193 11 22.5V22.5C11 23.8807 9.88071 25 8.5 25V25C7.11929 25 6 23.8807 6 22.5V22.5Z" fill="white"/>
<path d="M13 8.5C13 7.11929 14.1193 6 15.5 6V6C16.8807 6 18 7.11929 18 8.5V8.5C18 9.88071 16.8807 11 15.5 11V11C14.1193 11 13 9.88071 13 8.5V8.5Z" fill="white"/>
<path d="M13 15.5C13 14.1193 14.1193 13 15.5 13V13C16.8807 13 18 14.1193 18 15.5V15.5C18 16.8807 16.8807 18 15.5 18V18C14.1193 18 13 16.8807 13 15.5V15.5Z" fill="white"/>
<path d="M13 22.5C13 21.1193 14.1193 20 15.5 20V20C16.8807 20 18 21.1193 18 22.5V22.5C18 23.8807 16.8807 25 15.5 25V25C14.1193 25 13 23.8807 13 22.5V22.5Z" fill="white"/>
<path d="M20 8.5C20 7.11929 21.1193 6 22.5 6V6C23.8807 6 25 7.11929 25 8.5V8.5C25 9.88071 23.8807 11 22.5 11V11C21.1193 11 20 9.88071 20 8.5V8.5Z" fill="white"/>
<path d="M20 15.5C20 14.1193 21.1193 13 22.5 13V13C23.8807 13 25 14.1193 25 15.5V15.5C25 16.8807 23.8807 18 22.5 18V18C21.1193 18 20 16.8807 20 15.5V15.5Z" fill="white"/>
<path d="M20 22.5C20 21.1193 21.1193 20 22.5 20V20C23.8807 20 25 21.1193 25 22.5V22.5C25 23.8807 23.8807 25 22.5 25V25C21.1193 25 20 23.8807 20 22.5V22.5Z" fill="white"/>
</svg>
