<svg width="17" height="15" viewBox="0 0 17 15" fill="none" xmlns="http://www.w3.org/2000/svg">
<path d="M13.338 3.90977C13.0114 3.58958 12.4886 3.58958 12.162 3.90977V3.90977C11.8266 4.2386 11.8261 4.7786 12.1609 5.10808L13.7445 6.66667H5.93333C5.4731 6.66667 5.1 7.03976 5.1 7.5V7.5C5.1 7.96024 5.4731 8.33333 5.93333 8.33333H13.7445L12.1626 9.8842C11.8267 10.2135 11.8258 10.7541 12.1605 11.0846V11.0846C12.4876 11.4076 13.0133 11.4085 13.3416 11.0867L17 7.5L13.338 3.90977ZM1.7 1.66667H7.66667C8.1269 1.66667 8.5 1.29357 8.5 0.833333V0.833333C8.5 0.373096 8.1269 0 7.66667 0H1.7C0.765 0 0 0.75 0 1.66667V13.3333C0 14.25 0.765 15 1.7 15H7.66667C8.1269 15 8.5 14.6269 8.5 14.1667V14.1667C8.5 13.7064 8.1269 13.3333 7.66667 13.3333H1.7V1.66667Z" fill="white"/>
</svg>
